<svg width="55" height="55" viewBox="0 0 55 55" fill="none" xmlns="http://www.w3.org/2000/svg">
<path fill-rule="evenodd" clip-rule="evenodd" d="M13.7499 4.58331C8.68731 4.58331 4.58325 8.68737 4.58325 13.75V41.25C4.58325 46.3126 8.68731 50.4166 13.7499 50.4166H41.2499C46.3125 50.4166 50.4166 46.3126 50.4166 41.25V13.75C50.4166 8.68737 46.3125 4.58331 41.2499 4.58331H13.7499ZM13.7499 18.3333C13.7499 17.0677 14.7759 16.0416 16.0416 16.0416H38.9582C40.2239 16.0416 41.2499 17.0677 41.2499 18.3333C41.2499 19.599 40.2239 20.625 38.9582 20.625H16.0416C14.7759 20.625 13.7499 19.599 13.7499 18.3333ZM13.7499 27.5C13.7499 26.2343 14.7759 25.2083 16.0416 25.2083H38.9582C40.2239 25.2083 41.2499 26.2343 41.2499 27.5C41.2499 28.7656 40.2239 29.7916 38.9582 29.7916H16.0416C14.7759 29.7916 13.7499 28.7656 13.7499 27.5ZM16.0416 34.375C14.7759 34.375 13.7499 35.401 13.7499 36.6666C13.7499 37.9323 14.7759 38.9583 16.0416 38.9583H38.9582C40.2239 38.9583 41.2499 37.9323 41.2499 36.6666C41.2499 35.401 40.2239 34.375 38.9582 34.375H16.0416Z" fill="#5D5D5D"/>
</svg>
