<svg width="37" height="28" viewBox="0 0 37 28" fill="none" xmlns="http://www.w3.org/2000/svg">
<path fill-rule="evenodd" clip-rule="evenodd" d="M8.84433 4.95917C7.44486 6.08788 6.14298 7.49767 6.16698 9.40931C6.19185 11.3911 7.64896 14.2262 12.9344 18.1305C18.2199 22.0347 22.058 23.111 24.7409 23.1294C27.3288 23.1471 29.2374 22.1855 30.7654 21.1517L25.9231 17.5749L23.9963 18.9982C23.5379 19.3368 22.8417 19.4274 22.2542 19.2249C19.7177 18.3505 17.4792 17.2681 15.7877 16.0307C13.3034 14.2135 11.9713 12.2496 11.4109 11.1734C11.1922 10.7534 11.3289 10.2776 11.7597 9.95937L13.6866 8.53603L8.84433 4.95917ZM6.70789 3.31106C7.87119 2.38893 9.78525 2.43323 10.9232 3.27377L15.9513 6.98795C17.1088 7.84293 17.1088 9.22913 15.9513 10.0841L14.6808 11.0226C15.2704 11.9312 16.3141 13.2105 17.9572 14.4124C19.1398 15.2774 20.7186 16.0959 22.5955 16.8119L23.8274 15.902C24.9848 15.047 26.8614 15.047 28.0189 15.902L33.047 19.6162C34.185 20.4567 34.2449 21.8706 32.9965 22.7299C31.2566 23.9275 28.5691 25.4333 24.7123 25.4069C20.8771 25.3806 16.3092 23.8444 10.7542 19.741C5.1991 15.6376 3.11934 12.2634 3.08378 9.43042C3.04802 6.58148 5.08653 4.5963 6.70789 3.31106Z" fill="white"/>
</svg>
